<svg viewBox="0 -35 512 512" xmlns="http://www.w3.org/2000/svg"><path d="m325.582031 49h30v30h-30zm0 0"/><path d="m373.667969 49h30v30h-30zm0 0"/><path d="m421.25 49h30v30h-30zm0 0"/><path d="m166.367188 197.894531-90.121094 75.890625 90.121094 75.894532 19.324218-22.949219-62.871094-52.945313 62.871094-52.941406zm0 0"/><path d="m326.308594 220.84375 62.871094 52.941406-62.871094 52.945313 19.324218 22.949219 90.121094-75.894532-90.121094-75.890625zm0 0"/><path d="m203.335938 361.617188 74.367187-186.722657 27.871094 11.101563-74.367188 186.71875zm0 0"/><path d="m0 0v442h512v-442zm482 30v67.75h-452v-67.75zm-452 382v-284.25h452v284.25zm0 0"/></svg>